<svg width="512" height="512" xmlns="http://www.w3.org/2000/svg">

    <g >
        <path fill="#000000" d="m313.07692,48l0,-1c0,-16.569 -14.46415,-30 -32.30769,-30l-47.38462,0c-40.38677,0 -73.35138,29.491 -75.29092,66.546c-0.056,0.812 -0.09369,1.629 -0.09369,2.454l0,109c0,50.258 43.876,91 98,91c54.124,0 98,-40.742 98,-91l0,-109c0,-20.987 -18.32169,-38 -40.92308,-38zm16.15385,168l-27.46154,25.5l-16.69231,-13.5l-58.15385,0l-16.69231,13.5l-27.46154,-25.5l0,-75.368l10.30723,-17.632l94.15431,0c14.27462,0 25.84615,-10.745 25.84615,-24l0,6.382c0,4.999 1.34508,9.919 3.91354,14.313l12.24031,20.937l0,75.368z"/>
    </g>



</svg>