<svg width="512" height="512" xmlns="http://www.w3.org/2000/svg">

    <g>
        <path d="m160.996104,100.305568l0,69.876434l19.532784,-38.588149c63.106295,-11.873752 74.469169,-40.674329 74.469169,-40.674329s11.362874,28.800577 74.469169,40.674329l19.532784,38.588149l0,-69.876434c0,-44.351618 -42.08602,-80.305568 -94.001953,-80.305568c-51.915933,0 -94.001953,35.95395 -94.001953,80.305568z" fill="#965e1b" id="svg_34"/>
        <polyline stroke-linecap="round" points="86,132.453125 87.02734375,132.453125 90.109375,132.453125 94.21875,135.453125 99.35546875,139.453125 109.62890625,146.453125 114.765625,150.453125 116.8203125,152.453125 118.875,154.453125 119.90234375,155.453125 120.9296875,157.453125 121.95703125,159.453125 121.95703125,160.453125 122.984375,162.453125 122.984375,165.453125 122.984375,169.453125 122.984375,172.453125 122.984375,175.453125 122.984375,178.453125 122.984375,182.453125 122.984375,186.453125 122.984375,188.453125 124.01171875,191.453125 124.01171875,192.453125 124.01171875,192.453125 124.01171875,193.453125 124.01171875,193.453125 " opacity="0.5" fill-opacity="null" stroke-opacity="null" stroke-width="1.5" fill="none"/>
    </g>

</svg>

