<svg width="512" height="512" xmlns="http://www.w3.org/2000/svg">
    <g>
        <title>Simple Hair</title>
        <path fill="#000000" d="m165.00001,91.68674l0,53.31326l28.15385,-49.75903s34.18681,8.53012 63.34615,8.53012s63.34615,-8.53012 63.34615,-8.53012l28.15385,49.75903l0,-53.31326c0,-35.72557 -40.96586,-64.68675 -91.5,-64.68675c-50.53414,0 -91.5,28.96118 -91.5,64.68675z"/>
        <path d="m277.29851,80.79714c0.91368,0.44822 1.82736,0.89644 5.48208,2.68931c2.74104,1.34466 6.74922,2.47899 9.1368,4.48218c1.77959,1.49308 1.67294,3.48429 2.94266,6.27153c1.61857,3.55305 3.34909,5.26392 4.87082,9.6314c1.01449,2.91166 1.52173,4.36748 2.02898,5.82331c0.50724,1.45583 0.10081,2.46344 0.10081,2.46344c-0.40644,1.00761 -0.81287,2.01522 -1.21931,3.02283c-0.81287,2.01522 -1.21931,3.02283 -2.03218,5.03805c-0.81287,2.01522 -1.21931,3.02283 -1.62574,4.03044l-0.40644,1.00761l0,0l0,0" id="svg_6" stroke-opacity="null" stroke-width="4" fill="#000000"/>
        <path d="m250,89.25672c1,0 2,0 6,0c3,0 7.08025,-0.76013 10,0c2.17625,0.56655 2.81266,2.43367 5,4.41121c2.78832,2.52088 5,3.30841 8,6.61682c2,2.20561 3,3.30841 4,4.41121c1,1.1028 1,2.20561 1,2.20561c0,1.1028 0,2.20561 0,3.30841c0,2.20561 0,3.30841 0,5.51402c0,2.20561 0,3.30841 0,4.41121l0,1.1028l0,0l0,0" id="svg_7" stroke-opacity="null" stroke-width="4" fill="#000000"/>
        <path d="m205.80474,122.4545c0.1009,-1.4678 0.2018,-2.9356 0.6054,-8.80681c0.3027,-4.4034 0.16286,-10.43851 1.00899,-14.67801c0.63066,-3.15993 2.04963,-3.9808 3.70519,-7.07142c2.11044,-3.93978 2.90502,-7.13832 5.60824,-11.34103c1.80215,-2.80181 2.70322,-4.20271 3.60429,-5.60362c0.90107,-1.4009 1.70125,-1.33401 1.70125,-1.33401c0.80017,0.0669 1.60035,0.13379 2.40052,0.20069c1.60035,0.13379 2.40052,0.20069 4.00087,0.33448c1.60035,0.13379 2.40052,0.20069 3.2007,0.26759l0.80017,0.0669l0,0l0,0" id="svg_33" stroke-opacity="null" stroke-width="4" fill="#000000"/>
    </g>
</svg>