<svg width="512" height="512" xmlns="http://www.w3.org/2000/svg">

    <g id="skin-light">
        <title>Skin</title>
        <ellipse ry="55.5" rx="91" id="svg_22" cy="88.95313" cx="254.5" stroke-width="null" fill="#ffd4aa" stroke="null"/>
        <g id="svg_2">
            <title>Bottom Neck</title>
            <path d="m211.25968,270.84762l0,36c0,24.301 19.699,44 44,44s44,-19.699 44,-44l0,-36l-88,0z" fill="#ffd3b3" id="svg_3"/>
        </g>
        <g id="svg_4">
            <title>Top Neck</title>
            <path d="m211.25968,289.03562c13.499,5.851 28.376,9.812 44,9.812s30.501,-3.961 44,-9.812l0,-18.188l-88,0l0,18.188z" fill="#fcb98b" id="svg_5"/>
        </g>
        <g id="svg_6">
            <title>Face</title>
            <path d="m346.25968,93.84762l0,98c0,50.258 -40.742,91 -91,91c-50.258,0 -91,-40.742 -91,-91l0,-98l182,0z" fill="#ffd3b3" id="svg_7"/>
        </g>
        <g id="svg_8">
            <title>Left Ear</title>
            <path d="m150.25968,179.84762l14,0l0,-50l-14,0c-5.523,0 -10,4.477 -10,10l0,30c0,5.523 4.477,10 10,10z" fill="#ffd3b3" id="svg_9"/>
        </g>
        <g id="svg_10">
            <title>Right Ear</title>
            <path d="m360.25968,179.84762l-14,0l0,-50l14,0c5.523,0 10,4.477 10,10l0,30c0,5.523 -4.477,10 -10,10z" fill="#ffd3b3" id="svg_11"/>
        </g>
        <g id="svg_12">
            <title>Left Arm</title>
            <path d="m131.25968,505.84762l-66,0l0,-33l66,0l0,33z" fill="#ffd3b3" id="svg_13"/>
        </g>
        <g id="svg_14">
            <title>Right Arm</title>
            <path d="m379.25968,472.84762l66,0l0,33l-66,0l0,-33z" fill="#ffd3b3" id="svg_15"/>
        </g>
    </g>

</svg>